# xmcd
#
# Track frame offsets:
#	150
#	21852
#	39882
#	55900
#	75920
#	90680
#	110270
#	131890
#	152915
#	168007
#	187587
#	209970
#	232627
#	254457
#	270887
#	289397
#	303360
#	317047
#
# Disc length: 4409 seconds
#
# Revision: 0
# Processed by: cddbd v1.5.2PL0 Copyright (c) Steve Scherf et al.
# Submitted via: EasyCDDAExtractor 16.0.6.1
#
DISCID=e4113712
DTITLE=Συλλογικός δίσκος - Οι πατρίδες της Ελλάδας 3-Ήπειρος
DYEAR=2004
DGENRE=Παραδοσιακή
TTITLE0=Αθανασίου Παγώνα - Χαλασιά μου
TTITLE1=Αθανασίου Παγώνα - Αυτά τα μάτια Δήμο μου
TTITLE2=Αθανασίου Παγώνα - Σού στέλνω μάνα επιταγή
TTITLE3=Αθανασίου Παγώνα - Ο σεβντάς
TTITLE4=Αθανασίου Παγώνα - Φεγγάρι μου λαμπρότατο
TTITLE5=Αθανασίου Παγώνα - Μαύρα μου χελιδόνια
TTITLE6=Αθανασίου Παγώνα - Η Πανάγιω
TTITLE7=Αθανασίου Παγώνα - Από το βουνό κατεβαίνω
TTITLE8=Αθανασίου Παγώνα - Μιά ωραία βοσκοπούλα
TTITLE9=Αθανασίου Πάνος - Φεζοδερβαίναγας
TTITLE10=Αθανασίου Πάνος - Βασίλ' αρχόντισσα
TTITLE11=Αθανασίου Πάνος - Οι κλέφτες οι Βελτσισνοί
TTITLE12=Αθανασίου Πάνος - Οσμαν-Τάκας
TTITLE13=Αθανασίου Πάνος - Κυρά Αναγνώσταινα
TTITLE14=Αθανασίου Πάνος - Στη βρύση στα Τσερινίτσαινα
TTITLE15=Αθανασίου Πάνος - Αχός βαρύς ακούγεται
TTITLE16=Αθανασίου Πάνος - Ασημένια αλυσίδα
TTITLE17=Αθανασίου Πάνος - Εξέφεξε η ανατολή
EXTD=
EXTT0=
EXTT1=
EXTT2=
EXTT3=
EXTT4=
EXTT5=
EXTT6=
EXTT7=
EXTT8=
EXTT9=
EXTT10=
EXTT11=
EXTT12=
EXTT13=
EXTT14=
EXTT15=
EXTT16=
EXTT17=
PLAYORDER=
